<?xml version="1.0" encoding="utf-8"?>
<!-- Generator: Adobe Illustrator 19.0.0, SVG Export Plug-In . SVG Version: 6.00 Build 0)  -->
<svg version="1.1" id="Layer_1" xmlns="http://www.w3.org/2000/svg" xmlns:xlink="http://www.w3.org/1999/xlink" x="0px" y="0px"
	 viewBox="0 0 250 50" style="enable-background:new 0 0 250 50;" xml:space="preserve">
<style type="text/css">
	.st0{fill:#E67E22;}
	.st1{font-family:'LibreBaskerville-Regular';}
	.st2{font-size:16.602px;}
	.st3{stroke:#FFFFFF;stroke-width:0.25;stroke-miterlimit:10;}
	.st4{fill:#FFFFFF;}
	.st5{font-family:'MyriadPro-Regular';}
	.st6{font-size:3.4783px;}
	.st7{fill-rule:evenodd;clip-rule:evenodd;fill:#F4C29B;}
	.st8{fill:#D68B76;}
	.st9{fill-rule:evenodd;clip-rule:evenodd;fill:#FBD4A7;}
	.st10{fill-rule:evenodd;clip-rule:evenodd;fill:#FBEDD9;}
	.st11{font-family:'Tahoma';}
	.st12{font-size:4.1294px;}
</style>
<rect id="XMLID_33_" x="-0.2" width="250.4" height="50"/>
<text id="XMLID_1_" transform="matrix(1 0 0 1 56.5678 31.4076)" class="st0 st1 st2">M.A.M Hotel Supplies</text>
<g id="XMLID_32_">
	<polygon id="XMLID_30_" class="st3" points="39.6,28.2 33.8,30.4 29.9,19.6 35.6,17.4 	"/>
	<text id="XMLID_31_" transform="matrix(0.3643 0.9502 -0.9282 0.372 32.0699 20.2003)" class="st4 st5 st6">CARD</text>
</g>
<g id="_x32_">
	<path id="XMLID_29_" class="st7" d="M34,29.5c0,0-0.7,0.7-0.8,1.2c-0.1,0.6,0.6,0.9,0.8,0.9c0.2,0,0.7-0.1,0.7-0.1
		s-0.5,2.3-0.5,2.5c0,0.2,0.4,0.5,0.8,0.5c0.4-0.1,1-0.9,1-0.9l-0.7-2.8L34,29.5z"/>
	<path id="XMLID_54_" class="st8" d="M34,29.6c-0.2,0.2-0.6,0.7-0.7,1.1l0,0c0,0,0,0,0,0c0,0.2,0.1,0.4,0.2,0.5
		c0.2,0.1,0.4,0.2,0.5,0.3l0,0c0,0,0,0,0,0c0.2,0,0.6-0.1,0.6-0.1c0.1,0,0.1,0,0.1,0.1c0,0,0,0,0,0.1c0,0.1-0.5,2.3-0.5,2.5
		c0,0,0,0,0,0c0,0.1,0.1,0.1,0.2,0.2c0.1,0.1,0.2,0.1,0.4,0.2c0.1,0,0.1,0,0.2,0c0.3-0.1,0.8-0.7,0.9-0.8l-0.7-2.7L34,29.6z
		 M33.1,30.7c0.1-0.6,0.8-1.2,0.8-1.3l0,0c0,0,0.1,0,0.1,0l1.3,1.3c0,0,0,0,0,0l0.7,2.8l0,0c0,0,0,0.1,0,0.1c0,0-0.7,0.9-1.1,0.9
		c-0.1,0-0.1,0-0.2,0c-0.2,0-0.3-0.1-0.5-0.2c-0.1-0.1-0.2-0.2-0.3-0.3c0,0,0,0,0-0.1c0-0.2,0.4-1.8,0.5-2.3
		c-0.2,0.1-0.4,0.1-0.6,0.1c0,0,0,0,0,0l0,0c-0.1,0-0.4-0.1-0.5-0.3C33.2,31.3,33,31.1,33.1,30.7C33.1,30.7,33.1,30.7,33.1,30.7
		L33.1,30.7z M33.3,30.8C33.3,30.8,33.3,30.8,33.3,30.8"/>
	<path id="XMLID_24_" class="st7" d="M35.8,33.3c-0.1,0.1-0.8,1.1-0.8,1.5c0,0.3,0.1,1.2,0.2,1.3c0.2,0.2,0.9,0.1,1.1,0
		c0,0-0.1,0.5,0.4,0.7c0.4,0.1,0.8-0.1,0.8-0.1l-0.2-3.2C37.3,33.3,35.8,33.3,35.8,33.3L35.8,33.3z"/>
	<path id="XMLID_50_" class="st8" d="M35.9,33.4c-0.1,0.1-0.3,0.5-0.5,0.8c-0.1,0.2-0.2,0.4-0.2,0.5c0,0.2,0,0.5,0.1,0.7
		c0,0.2,0.1,0.4,0.1,0.4c0.1,0.1,0.2,0.1,0.4,0.1c0.2,0,0.4-0.1,0.5-0.1c0,0,0.1,0,0.1,0c0,0,0,0.1,0,0.1c0,0.1,0,0.4,0.3,0.5
		c0.3,0.1,0.6,0,0.7-0.1l-0.2-3.1C36.9,33.4,36.1,33.4,35.9,33.4L35.9,33.4z M35.2,34.1c0.2-0.4,0.5-0.8,0.6-0.9l0,0l0,0l0,0l0,0
		c0,0,0,0,0.1,0c0,0,1.4,0,1.5,0c0.1,0,0.1,0,0.1,0.1l0.2,3.2c0,0,0,0.1,0,0.1c0,0-0.5,0.3-0.9,0.1c-0.3-0.1-0.4-0.4-0.4-0.6
		c-0.1,0-0.3,0.1-0.5,0.1c-0.2,0-0.5,0-0.6-0.1c-0.1-0.1-0.1-0.3-0.1-0.6c0-0.3-0.1-0.6-0.1-0.8C34.9,34.6,35,34.4,35.2,34.1
		L35.2,34.1z"/>
	<path id="XMLID_21_" class="st9" d="M42.4,43.7c0,0-1.5-2.3-2-2.7c-0.6-0.4-2.1-2.6-2.2-2.8c-0.1-0.1-0.9-1.6-1.6-3
		c-0.6-1.1-1.1-2-1.2-2.1c-0.2-0.2-0.7-1.1-0.7-1.1L34,30.6c0,0-0.5-1.2-0.5-1.3c0.1-0.2,0.5-0.6,0.9-0.7s0.9,0,0.9,0
		s3.1-1.2,3.4-1.2c0.3,0.1,2.5,1.6,2.9,1.9c0.4,0.3,2.3,1.2,2.5,1.6c0.2,0.4,1.2,6.4,1.7,7.5c0.5,1.2,1.3,2.7,1.3,2.7
		S45.7,44,42.4,43.7L42.4,43.7z"/>
	<path id="XMLID_20_" class="st10" d="M33.7,29.9c-0.1-0.2-0.1-0.4-0.2-0.5c0,0,0.5-0.5,0.9-0.6c0.4-0.1,0.6,0,0.6,0l0.5,0.9
		l-0.4,0.1l-0.3,0.3c0,0-0.4,0.6-0.5,0.6c-0.1,0-0.1,0.1-0.1,0.1C34.1,30.9,33.7,29.9,33.7,29.9L33.7,29.9z"/>
	<path id="XMLID_19_" class="st7" d="M35.3,28.6L35.3,28.6c0,0,0.2-0.1,0.5-0.2c0.4,0.3,0.9,0.7,0.9,0.9c0.1,0.3,0.4,0.5,0.7,0.6
		c0.2,0,0.5-0.3,0.5-0.3s0.8,0.4,1.1,0.5s0.7,0.1,0.7,0.1l0.3,0.2c0,0,0.1,1.3,0.1,1.7c0,0.3-0.3,0.7-0.2,1c0.1,0.2,0.5,0.6,0.6,1
		c0.1,0.4-0.1,0.6-0.1,0.6l-1.2-1.2l0.4-1.6l0-1.1l-0.8-0.2l-0.8-0.5l-0.4,0.3L37,30.6l-0.5-1C36.5,29.7,35.7,28.9,35.3,28.6
		L35.3,28.6z"/>
	<polygon id="XMLID_18_" class="st7" points="37,30.6 37.4,30.4 37.9,30.1 38.6,30.5 39.5,30.7 39.6,31.3 39.5,32.1 39.2,33.4 
		38.4,32.7 37.8,32.3 	"/>
	<path id="XMLID_17_" class="st7" d="M42.4,43.7c0,0-1.5-2.3-2-2.7c-0.6-0.4-2.1-2.6-2.2-2.8c-0.1-0.1-0.9-1.6-1.6-3
		c-0.6-1.1-1.1-2-1.2-2.1c-0.2-0.2-0.7-1.1-0.7-1.1l-0.6-1.2c0.1,0,0.1,0,0.1,0c-0.1,0,0.1-0.1,0.1-0.1l0.5-0.6c0,0-0.2,0.5,0,0.8
		c0.2,0.3,0.3,0.6,0.3,0.6s0.2,0.4,0.3,0.5c0.1,0.1,0.1,0.1,0.1,0.1l0.2,0.3c0,0,0.2,0.2,0.3,0.2s2,2.6,2.4,3.6s1.1,2.5,1.7,3.2
		c0.6,0.7,1.6,1.9,2.3,2.5c0.7,0.6,1.5,0.7,2.4,0.7c0.7,0,1.6-0.6,2.1-1C46.3,42.4,44.8,43.9,42.4,43.7L42.4,43.7z"/>
	<path id="XMLID_42_" class="st8" d="M42.3,43.8c-0.1-0.1-1.5-2.3-2-2.7c-0.2-0.2-0.6-0.5-0.9-1c-0.6-0.8-1.3-1.7-1.4-1.8
		c0-0.1-0.3-0.5-0.6-1.2l0,0c-0.3-0.6-0.7-1.3-1-1.9c-0.3-0.5-0.5-1-0.8-1.4c-0.2-0.4-0.4-0.6-0.4-0.7c-0.2-0.3-0.7-1.1-0.7-1.1
		c0,0,0,0,0,0l-0.7-1.5l0,0l0,0c0,0-0.5-1.2-0.5-1.4c0-0.1,0.2-0.3,0.4-0.5c0.2-0.1,0.3-0.2,0.5-0.2c0.4-0.1,0.8,0,0.9,0
		c0.3-0.1,3.1-1.2,3.5-1.2c0.2,0.1,1.4,0.8,2.2,1.4l0,0c0.4,0.2,0.6,0.4,0.8,0.5c0.1,0.1,0.3,0.2,0.6,0.3c0.7,0.4,1.8,1,2,1.3
		c0.1,0.1,0.2,1,0.5,2.2c0.4,2,0.9,4.6,1.2,5.4c0.5,1.2,1.3,2.7,1.3,2.7c0,0,0,0.1,0,0.1l0,0C47.3,41.2,45.8,44.1,42.3,43.8
		C42.4,43.8,42.3,43.8,42.3,43.8L42.3,43.8z M40.5,40.9c0.5,0.4,1.8,2.4,2,2.7c2.9,0.2,4.4-2.1,4.6-2.5c-0.1-0.3-0.8-1.6-1.3-2.7
		c-0.3-0.8-0.8-3.4-1.2-5.4c-0.2-1.1-0.4-2-0.5-2.1c-0.1-0.2-1.1-0.8-1.9-1.2c-0.3-0.1-0.5-0.3-0.6-0.3c-0.1-0.1-0.4-0.3-0.8-0.5
		l0,0c-0.8-0.6-1.9-1.3-2.1-1.4c-0.3-0.1-3.3,1.2-3.4,1.2l0,0c0,0,0,0-0.1,0c0,0-0.5-0.1-0.9,0c-0.1,0-0.3,0.1-0.4,0.2
		c-0.2,0.2-0.3,0.3-0.4,0.4c0,0.1,0.5,1.2,0.5,1.2l0,0l0.7,1.5c0,0,0.5,0.8,0.7,1c0.1,0.1,0.2,0.3,0.4,0.7c0.2,0.4,0.5,0.9,0.8,1.4
		c0.4,0.7,0.7,1.3,1,1.9l0,0c0.3,0.6,0.6,1.1,0.6,1.1c0.1,0.1,0.7,1,1.3,1.8C39.9,40.4,40.3,40.8,40.5,40.9L40.5,40.9z"/>
	<path id="XMLID_14_" class="st8" d="M40.4,34.6c0,0,0,0.1,0,0.1c0,0-0.1,0-0.1,0c0,0-1.4-1.7-1.9-1.9c-0.5-0.3-0.7-0.4-0.7-0.4
		c0,0,0,0,0-0.1c-0.1-0.1-0.7-1.7-1.3-2.6c-0.6-0.6-1.1-1.1-1.1-1.1c0,0-0.1-0.1,0-0.1c0,0,0.1-0.1,0.1,0c0,0,0.6,0.5,1.1,1.1
		c0,0,0,0,0,0c0.5,0.9,1.2,2.4,1.3,2.6c0.1,0,0.2,0.1,0.6,0.4C39,32.9,40.4,34.6,40.4,34.6L40.4,34.6z"/>
	<path id="XMLID_13_" class="st8" d="M35,28.9C35,28.9,35,28.9,35,28.9C35,28.8,35.1,28.8,35,28.9l0.6,0.8c0,0,0,0,0,0.1
		c0,0,0,0,0,0l0,0c0,0-0.4,0-0.7,0.4c-0.2,0.2-0.3,0.4-0.4,0.5c-0.1,0.1-0.1,0.2-0.2,0.2c0,0,0,0-0.1,0c0,0,0,0,0-0.1
		c0,0,0.1-0.1,0.2-0.2c0.1-0.1,0.2-0.3,0.4-0.5c0.3-0.3,0.6-0.4,0.7-0.4L35,28.9z"/>
	<path id="XMLID_12_" class="st8" d="M36.4,30.7C36.4,30.7,36.4,30.8,36.4,30.7C36.4,30.8,36.4,30.8,36.4,30.7
		c0,0.1-0.6,0.2-0.9,0.6c-0.3,0.3-0.5,0.5-0.5,0.5c0,0,0,0-0.1,0c0,0,0,0,0-0.1c0,0,0.1-0.2,0.5-0.5C35.7,30.9,36.4,30.7,36.4,30.7
		L36.4,30.7z"/>
	<path id="XMLID_11_" class="st8" d="M36.7,31.1C36.7,31.1,36.7,31.1,36.7,31.1C36.8,31.1,36.7,31.1,36.7,31.1c0,0.1-0.7,0.5-1,0.8
		c-0.2,0.3-0.3,0.5-0.3,0.5c0,0,0,0-0.1,0c0,0,0,0,0-0.1c0,0,0.1-0.2,0.3-0.5C35.9,31.5,36.7,31.1,36.7,31.1L36.7,31.1z"/>
	<path id="XMLID_10_" class="st8" d="M36.7,31.6C36.8,31.6,36.8,31.6,36.7,31.6C36.8,31.6,36.8,31.7,36.7,31.6
		c-0.1,0.4-0.3,0.6-0.5,0.8c-0.2,0.2-0.4,0.3-0.6,0.3c0,0,0,0,0-0.1c0,0,0,0,0,0c0.2,0,0.3-0.1,0.5-0.3C36.4,32.2,36.5,32,36.7,31.6
		L36.7,31.6z"/>
	<path id="XMLID_9_" class="st8" d="M41.3,32.5C41.4,32.4,41.4,32.5,41.3,32.5C41.4,32.5,41.4,32.5,41.3,32.5c0,0.1-0.9,0.3-1.2,0.6
		c-0.3,0.3-0.6,0.5-0.6,0.5c0,0,0,0-0.1,0c0,0,0,0,0-0.1c0.1-0.1,1.2-1.3,1.5-1.6c0.3-0.3,0.8-0.7,0.8-0.7c0,0,0,0,0.1,0
		c0,0,0,0,0,0.1c0,0-0.5,0.4-0.8,0.7c-0.2,0.2-0.6,0.6-1,1l0,0C40.4,32.7,41.3,32.4,41.3,32.5L41.3,32.5z"/>
	<path id="XMLID_8_" class="st8" d="M39.3,33.4c0,0.1-0.1,0.1-0.1,0.1c-0.1,0-0.1-0.1-0.1-0.1l0.4-1.5l0-1c-0.2,0-0.7-0.1-1.1-0.3
		c-0.2-0.2-0.4-0.2-0.4-0.3c-0.1,0.1-0.3,0.2-0.5,0.3c-0.2,0-0.3,0.2-0.3,0.2c0,0-0.1,0-0.1,0c0,0,0-0.1,0-0.1c0,0,0.2-0.2,0.4-0.2
		c0.2,0,0.4-0.2,0.4-0.3c0,0,0.1,0,0.1,0c0,0,0.1,0,0.5,0.3c0.4,0.3,1,0.3,1,0.3l0,0c0.1,0,0.1,0,0.1,0.1l0,1.1c0,0,0,0,0,0
		L39.3,33.4z"/>
	<path id="XMLID_7_" class="st8" d="M37.9,28.9C37.9,28.9,38,28.8,37.9,28.9C38,28.8,38,28.9,37.9,28.9l0,1.2c0,0,0,0,0,0
		c0,0,0,0,0,0l-0.2-0.6c0,0,0,0,0-0.1c0,0,0,0,0.1,0l0.1,0.4L37.9,28.9z"/>
	<path id="XMLID_6_" class="st8" d="M39.9,29.7C39.9,29.6,39.9,29.6,39.9,29.7C39.9,29.6,40,29.7,39.9,29.7l-0.2,0.9l0.4-0.3
		c0,0,0,0,0.1,0c0,0,0,0,0,0.1l-0.5,0.4c0,0,0,0,0,0c0,0,0,0,0-0.1L39.9,29.7z"/>
	<path id="XMLID_5_" class="st8" d="M39.5,31.8c0.1,0,0.1,0.1,0.1,0.1c0,0,0,0,0,0c0,0,0,0,0,0c0,0-0.1,0-0.1,0l0,0c0,0-0.1,0-0.1,0
		c-0.2,0-0.6-0.1-0.9-0.1c-0.4,0-1-0.4-1-0.4c0,0-0.1-0.1,0-0.1c0,0,0.1-0.1,0.1,0c0,0,0.6,0.4,0.9,0.4
		C38.6,31.7,39.4,31.8,39.5,31.8L39.5,31.8z"/>
	<path id="XMLID_4_" class="st8" d="M38,30.6C38,30.6,38,30.6,38,30.6C38.1,30.6,38.1,30.6,38,30.6c0.1,0,0.1,0.2,0.1,0.6
		c0,0.4,0.1,0.5,0.1,0.5c0,0,0,0,0,0.1c0,0,0,0-0.1,0c0,0-0.1-0.1-0.1-0.5C38,30.8,38,30.6,38,30.6L38,30.6z"/>
	<path id="XMLID_3_" class="st8" d="M37.9,31.9C37.9,31.9,37.9,31.9,37.9,31.9C37.9,31.8,38,31.8,37.9,31.9c0.1,0,0.2,0.1,0.2,0.3
		c0.1,0.2,0.1,0.3,0.1,0.3c0,0,0,0-0.1,0c0,0,0,0,0-0.1c0,0-0.1-0.1-0.1-0.3C38,32.1,38,31.9,37.9,31.9L37.9,31.9z"/>
	
		<rect id="XMLID_34_" x="36" y="35.5" transform="matrix(-0.4143 0.9102 -0.9102 -0.4143 83.922 17.2586)" class="st8" width="0.9" height="0.2"/>
</g>
<g id="XMLID_2_">
	<g id="XMLID_41_">
		<path id="XMLID_43_" class="st4" d="M36.6,4.6c-0.1-0.2-0.2-0.5-0.1-0.8c0.1-0.5,0.7-0.8,1.2-0.7c4.1,1.1,7.6,3.8,9.7,7.5
			c2.1,3.7,2.7,8,1.5,12.1c-0.1,0.5-0.7,0.8-1.2,0.7c-0.5-0.1-0.8-0.7-0.7-1.2c1-3.6,0.5-7.4-1.3-10.6C43.8,8.3,40.8,6,37.2,5
			C36.9,5,36.7,4.8,36.6,4.6z"/>
	</g>
	<g id="XMLID_39_">
		<path id="XMLID_40_" class="st4" d="M35.7,8c-0.1-0.2-0.2-0.5-0.1-0.8c0.1-0.5,0.7-0.8,1.2-0.7c3.2,0.9,5.9,2.9,7.6,5.8
			c1.6,2.9,2.1,6.2,1.2,9.4c-0.1,0.5-0.7,0.8-1.2,0.7c-0.5-0.1-0.8-0.7-0.7-1.2c0.7-2.7,0.4-5.5-1-7.9c-1.4-2.4-3.6-4.2-6.3-4.9
			C36,8.4,35.8,8.2,35.7,8z"/>
	</g>
	<g id="XMLID_37_">
		<path id="XMLID_38_" class="st4" d="M34.8,11.4c-0.1-0.2-0.2-0.5-0.1-0.8c0.1-0.5,0.7-0.8,1.2-0.7c2.3,0.6,4.2,2.1,5.4,4.2
			c1.2,2.1,1.5,4.4,0.9,6.7c-0.1,0.5-0.7,0.8-1.2,0.7c-0.5-0.1-0.8-0.7-0.7-1.2c0.5-1.8,0.2-3.6-0.7-5.2c-0.9-1.6-2.4-2.8-4.2-3.2
			C35.1,11.8,34.9,11.6,34.8,11.4z"/>
	</g>
</g>
<g id="XMLID_36_">
	<g id="XMLID_48_">
		<path id="XMLID_49_" class="st4" d="M25,6c0-0.3,0-0.5-0.2-0.7c-0.3-0.4-1-0.5-1.4-0.2c-3.4,2.6-5.6,6.4-6.1,10.6
			c-0.6,4.2,0.6,8.4,3.1,11.8c0.3,0.4,1,0.5,1.4,0.2c0.4-0.3,0.5-1,0.2-1.4c-2.3-3-3.2-6.6-2.8-10.3c0.5-3.7,2.4-7,5.4-9.3
			C24.9,6.5,25,6.3,25,6z"/>
	</g>
	<g id="XMLID_46_">
		<path id="XMLID_47_" class="st4" d="M27.2,8.8c0-0.3,0-0.5-0.2-0.7c-0.3-0.4-1-0.5-1.4-0.2c-2.7,2-4.4,5-4.8,8.3
			c-0.4,3.3,0.4,6.5,2.4,9.2c0.3,0.4,1,0.5,1.4,0.2c0.4-0.3,0.5-1,0.2-1.4c-1.7-2.2-2.4-4.9-2.1-7.7c0.4-2.8,1.8-5.2,4-6.9
			C27,9.3,27.1,9.1,27.2,8.8z"/>
	</g>
	<g id="XMLID_44_">
		<path id="XMLID_45_" class="st4" d="M29.3,11.6c0-0.3,0-0.5-0.2-0.7c-0.3-0.4-1-0.5-1.4-0.2c-1.9,1.5-3.1,3.6-3.4,5.9
			C24,19,24.6,21.3,26,23.2c0.3,0.4,1,0.5,1.4,0.2c0.4-0.3,0.5-1,0.2-1.4c-1.1-1.5-1.6-3.3-1.4-5.1c0.2-1.8,1.2-3.5,2.7-4.6
			C29.1,12.1,29.3,11.9,29.3,11.6z"/>
	</g>
</g>
<text id="XMLID_28_" transform="matrix(0.9969 7.906354e-002 -7.906354e-002 0.9969 17.7396 41.3745)" class="st4 st11 st12">UNLOCK</text>
</svg>
